<svg width="24" height="24" viewBox="0 0 24 24" fill="none" xmlns="http://www.w3.org/2000/svg">
<path d="M14 6.75H10C9.04 6.75 7.25 6.75 7.25 4C7.25 1.25 9.04 1.25 10 1.25H14C14.96 1.25 16.75 1.25 16.75 4C16.75 4.96 16.75 6.75 14 6.75ZM10 2.75C9.01 2.75 8.75 2.75 8.75 4C8.75 5.25 9.01 5.25 10 5.25H14C15.25 5.25 15.25 4.99 15.25 4C15.25 2.75 14.99 2.75 14 2.75H10Z" fill="#0E0E0E"/>
<path d="M14 22.75H9C3.38 22.75 2.25 20.17 2.25 16V10C2.25 5.44 3.9 3.49 7.96 3.28C8.36 3.26 8.73 3.57 8.75 3.99C8.77 4.41 8.45 4.75 8.04 4.77C5.2 4.93 3.75 5.78 3.75 10V16C3.75 19.7 4.48 21.25 9 21.25H14C14.41 21.25 14.75 21.59 14.75 22C14.75 22.41 14.41 22.75 14 22.75Z" fill="#0E0E0E"/>
<path d="M13 13.75H7C6.59 13.75 6.25 13.41 6.25 13C6.25 12.59 6.59 12.25 7 12.25H13C13.41 12.25 13.75 12.59 13.75 13C13.75 13.41 13.41 13.75 13 13.75Z" fill="#0E0E0E"/>
<path d="M11 17.75H7C6.59 17.75 6.25 17.41 6.25 17C6.25 16.59 6.59 16.25 7 16.25H11C11.41 16.25 11.75 16.59 11.75 17C11.75 17.41 11.41 17.75 11 17.75Z" fill="#0E0E0E"/>
<path d="M20.9999 15.75C20.5899 15.75 20.2499 15.41 20.2499 15V9.99999C20.2499 5.77999 18.7999 4.92999 15.9599 4.76999C15.5499 4.74999 15.2299 4.38999 15.2499 3.97999C15.2699 3.56999 15.6399 3.24999 16.0399 3.26999C20.0999 3.48999 21.7499 5.43999 21.7499 9.98999V14.99C21.7499 15.41 21.4099 15.75 20.9999 15.75Z" fill="#0E0E0E"/>
<path d="M21 22.75H18C17.59 22.75 17.25 22.41 17.25 22C17.25 21.59 17.59 21.25 18 21.25H20.25V19C20.25 18.59 20.59 18.25 21 18.25C21.41 18.25 21.75 18.59 21.75 19V22C21.75 22.41 21.41 22.75 21 22.75Z" fill="#0E0E0E"/>
<path d="M20.9599 22.71C20.7699 22.71 20.5799 22.64 20.4299 22.49L14.4699 16.53C14.1799 16.24 14.1799 15.76 14.4699 15.47C14.7599 15.18 15.2399 15.18 15.5299 15.47L21.4899 21.43C21.7799 21.72 21.7799 22.2 21.4899 22.49C21.3399 22.63 21.1499 22.71 20.9599 22.71Z" fill="#0E0E0E"/>
</svg>
