<svg width="24" height="24" viewBox="0 0 24 24" fill="none" xmlns="http://www.w3.org/2000/svg">
<path fill-rule="evenodd" clip-rule="evenodd" d="M11 2.75C6.44365 2.75 2.75 6.44365 2.75 11C2.75 15.5563 6.44365 19.25 11 19.25C15.5563 19.25 19.25 15.5563 19.25 11C19.25 6.44365 15.5563 2.75 11 2.75ZM1.25 11C1.25 5.61522 5.61522 1.25 11 1.25C16.3848 1.25 20.75 5.61522 20.75 11C20.75 16.3848 16.3848 20.75 11 20.75C5.61522 20.75 1.25 16.3848 1.25 11Z" fill="#0E0E0E"/>
<path fill-rule="evenodd" clip-rule="evenodd" d="M17.4697 17.4697C17.7626 17.1768 18.2374 17.1768 18.5303 17.4697L22.5303 21.4697C22.8232 21.7626 22.8232 22.2374 22.5303 22.5303C22.2374 22.8232 21.7626 22.8232 21.4697 22.5303L17.4697 18.5303C17.1768 18.2374 17.1768 17.7626 17.4697 17.4697Z" fill="#0E0E0E"/>
</svg>
