<svg width="21" height="20" viewBox="0 0 21 20" fill="none" xmlns="http://www.w3.org/2000/svg">
<path d="M14.667 17.7082H6.33366C5.99199 17.7082 5.70866 17.4248 5.70866 17.0832C5.70866 16.7415 5.99199 16.4582 6.33366 16.4582H14.667C17.0503 16.4582 18.2087 15.2998 18.2087 12.9165V7.08317C18.2087 4.69984 17.0503 3.5415 14.667 3.5415H6.33366C3.95033 3.5415 2.79199 4.69984 2.79199 7.08317C2.79199 7.42484 2.50866 7.70817 2.16699 7.70817C1.82533 7.70817 1.54199 7.42484 1.54199 7.08317C1.54199 4.0415 3.29199 2.2915 6.33366 2.2915H14.667C17.7087 2.2915 19.4587 4.0415 19.4587 7.08317V12.9165C19.4587 15.9582 17.7087 17.7082 14.667 17.7082Z" fill="white"/>
<path d="M10.5 10.725C9.79998 10.725 9.09165 10.5083 8.54998 10.0666L5.94164 7.98331C5.67498 7.76664 5.62498 7.37497 5.84165 7.10831C6.05831 6.84164 6.44997 6.79164 6.71664 7.00831L9.32497 9.09164C9.95831 9.59998 11.0333 9.59998 11.6666 9.09164L14.275 7.00831C14.5416 6.79164 14.9416 6.83331 15.15 7.10831C15.3666 7.37497 15.325 7.77498 15.05 7.98331L12.4416 10.0666C11.9083 10.5083 11.2 10.725 10.5 10.725Z" fill="white"/>
<path d="M7.16699 14.375H2.16699C1.82533 14.375 1.54199 14.0917 1.54199 13.75C1.54199 13.4083 1.82533 13.125 2.16699 13.125H7.16699C7.50866 13.125 7.79199 13.4083 7.79199 13.75C7.79199 14.0917 7.50866 14.375 7.16699 14.375Z" fill="white"/>
<path d="M4.66699 11.0415H2.16699C1.82533 11.0415 1.54199 10.7582 1.54199 10.4165C1.54199 10.0748 1.82533 9.7915 2.16699 9.7915H4.66699C5.00866 9.7915 5.29199 10.0748 5.29199 10.4165C5.29199 10.7582 5.00866 11.0415 4.66699 11.0415Z" fill="white"/>
</svg>
