<svg width="24" height="24" viewBox="0 0 24 24" fill="none" xmlns="http://www.w3.org/2000/svg">
<path fill-rule="evenodd" clip-rule="evenodd" d="M6.5 9.5C6.91421 9.5 7.25 9.83579 7.25 10.25V13.75C7.25 14.1642 6.91421 14.5 6.5 14.5C6.08579 14.5 5.75 14.1642 5.75 13.75V10.25C5.75 9.83579 6.08579 9.5 6.5 9.5Z" fill="#0E0E0E"/>
<path fill-rule="evenodd" clip-rule="evenodd" d="M12 7.75C12.4142 7.75 12.75 8.08579 12.75 8.5L12.75 15.5C12.75 15.9142 12.4142 16.25 12 16.25C11.5858 16.25 11.25 15.9142 11.25 15.5L11.25 8.5C11.25 8.08579 11.5858 7.75 12 7.75Z" fill="#0E0E0E"/>
<path fill-rule="evenodd" clip-rule="evenodd" d="M17.5 9.5C17.9142 9.5 18.25 9.83579 18.25 10.25V13.75C18.25 14.1642 17.9142 14.5 17.5 14.5C17.0858 14.5 16.75 14.1642 16.75 13.75V10.25C16.75 9.83579 17.0858 9.5 17.5 9.5Z" fill="#0E0E0E"/>
<path fill-rule="evenodd" clip-rule="evenodd" d="M3.09467 3.09467C4.42914 1.7602 6.42603 1.25 9 1.25H15C17.574 1.25 19.5709 1.7602 20.9053 3.09467C22.2398 4.42914 22.75 6.42603 22.75 9V15C22.75 17.574 22.2398 19.5709 20.9053 20.9053C19.5709 22.2398 17.574 22.75 15 22.75H9C6.42603 22.75 4.42914 22.2398 3.09467 20.9053C1.7602 19.5709 1.25 17.574 1.25 15V9C1.25 6.42603 1.7602 4.42914 3.09467 3.09467ZM4.15533 4.15533C3.2398 5.07086 2.75 6.57397 2.75 9V15C2.75 17.426 3.2398 18.9291 4.15533 19.8447C5.07086 20.7602 6.57397 21.25 9 21.25H15C17.426 21.25 18.9291 20.7602 19.8447 19.8447C20.7602 18.9291 21.25 17.426 21.25 15V9C21.25 6.57397 20.7602 5.07086 19.8447 4.15533C18.9291 3.2398 17.426 2.75 15 2.75H9C6.57397 2.75 5.07086 3.2398 4.15533 4.15533Z" fill="#0E0E0E"/>
</svg>
