<svg width="24" height="24" viewBox="0 0 24 24" fill="none" xmlns="http://www.w3.org/2000/svg">
<path d="M12 14.75H7C6.59 14.75 6.25 14.41 6.25 14C6.25 13.59 6.59 13.25 7 13.25H12C12.41 13.25 12.75 13.59 12.75 14C12.75 14.41 12.41 14.75 12 14.75Z" fill="#7D7D7D"/>
<path d="M6.99994 6.71002C6.80994 6.71002 6.61994 6.64002 6.46994 6.49002L2.71994 2.74002C2.42994 2.45002 2.42994 1.97002 2.71994 1.68002C3.00994 1.39002 3.48994 1.39002 3.77994 1.68002L7.52994 5.43002C7.81994 5.72002 7.81994 6.20002 7.52994 6.49002C7.37994 6.63002 7.18994 6.71002 6.99994 6.71002Z" fill="#7D7D7D"/>
<path d="M3.21002 6.75C3.02002 6.75 2.83002 6.68 2.68002 6.53C2.39002 6.24 2.39002 5.76 2.68002 5.47L6.43002 1.72C6.72002 1.43 7.20002 1.43 7.49002 1.72C7.78002 2.01 7.78002 2.49 7.49002 2.78L3.74002 6.53C3.60002 6.68 3.40002 6.75 3.21002 6.75Z" fill="#7D7D7D"/>
<path d="M15 10.75H7C6.59 10.75 6.25 10.41 6.25 10C6.25 9.59 6.59 9.25 7 9.25H15C15.41 9.25 15.75 9.59 15.75 10C15.75 10.41 15.41 10.75 15 10.75Z" fill="#7D7D7D"/>
<path d="M21 16.75C20.59 16.75 20.25 16.41 20.25 16V7.99C20.25 3.76 18.81 2.9 15.96 2.75H10C9.59 2.75 9.25 2.41 9.25 2C9.25 1.59 9.59 1.25 10 1.25H16C20.1 1.47 21.75 3.42 21.75 7.99V16C21.75 16.41 21.41 16.75 21 16.75Z" fill="#7D7D7D"/>
<path d="M15 22.75H9C3.38 22.75 2.25 20.16 2.25 15.98V9.01001C2.25 8.60001 2.59 8.26001 3 8.26001C3.41 8.26001 3.75 8.60001 3.75 9.01001V15.98C3.75 19.7 4.48 21.25 9 21.25H15C15.41 21.25 15.75 21.59 15.75 22C15.75 22.41 15.41 22.75 15 22.75Z" fill="#7D7D7D"/>
<path d="M15 22.75C14.9 22.75 14.81 22.73 14.71 22.69C14.43 22.57 14.25 22.3 14.25 22V19C14.25 16.58 15.58 15.25 18 15.25H21C21.3 15.25 21.58 15.43 21.69 15.71C21.8 15.99 21.74 16.31 21.53 16.53L15.53 22.53C15.39 22.67 15.19 22.75 15 22.75ZM18 16.75C16.42 16.75 15.75 17.42 15.75 19V20.19L19.19 16.75H18Z" fill="#7D7D7D"/>
</svg>
