<svg width="24" height="24" viewBox="0 0 24 24" fill="none" xmlns="http://www.w3.org/2000/svg">
<path fill-rule="evenodd" clip-rule="evenodd" d="M5.79541 3.46012C5.21292 3.93799 4.75 4.81056 4.75 6.50704V17.493C4.75 17.7271 4.76061 17.9463 4.78064 18.1514H17.7746C18.465 18.1514 19.0246 17.5918 19.0246 16.9014V6.50704C19.0246 4.81056 18.5617 3.93799 17.9792 3.46012C17.3658 2.95689 16.4543 2.75 15.2676 2.75H8.50704C7.32037 2.75 6.40883 2.95689 5.79541 3.46012ZM5.18875 19.6514H17.7746C19.2934 19.6514 20.5246 18.4202 20.5246 16.9014V6.50704C20.5246 4.54155 19.9791 3.16061 18.9306 2.30044C17.9131 1.46565 16.5711 1.25 15.2676 1.25H8.50704C7.20358 1.25 5.86159 1.46565 4.84403 2.30044C3.79553 3.16061 3.25 4.54155 3.25 6.50704V17.493C3.25 17.9364 3.2819 18.3519 3.34505 18.7401C3.36272 18.8488 3.38285 18.9554 3.40542 19.0598C3.69191 20.3856 4.36642 21.3389 5.31628 21.9433C6.24409 22.5337 7.36865 22.75 8.50704 22.75H19.7746C20.1889 22.75 20.5246 22.4142 20.5246 22C20.5246 21.5858 20.1889 21.25 19.7746 21.25H8.50704C7.53969 21.25 6.72771 21.0635 6.12155 20.6778C5.7481 20.4401 5.42665 20.1108 5.18875 19.6514Z" fill="#0E0E0E"/>
<path d="M10.7741 8.53672C10.9142 8.39994 10.9953 8.21377 11 8.01799V8.01199C11.0164 7.89253 11.0625 7.77907 11.134 7.68199C11.242 7.53499 11.552 7.23399 12.487 7.24999C13.037 7.25899 13.444 7.48599 13.666 7.76099C13.7761 7.89228 13.8474 8.05171 13.8718 8.22133C13.8962 8.39094 13.8727 8.564 13.804 8.72099C13.687 9.01299 13.429 9.16099 12.887 9.39999L12.849 9.41699L12.8369 9.42234C12.6166 9.52 12.3085 9.6566 12.063 9.85299C11.752 10.103 11.5 10.477 11.5 11V11.75C11.5001 11.9489 11.5793 12.1396 11.72 12.2802C11.8608 12.4207 12.0516 12.4996 12.2505 12.4995C12.4494 12.4994 12.6401 12.4202 12.7807 12.2795C12.9212 12.1387 13.0001 11.9479 13 11.749V11.025L13.001 11.024C13.081 10.96 13.214 10.896 13.494 10.773L13.544 10.75C14.015 10.544 14.834 10.184 15.196 9.27899C15.552 8.38999 15.371 7.48699 14.834 6.81999C14.306 6.16499 13.463 5.76699 12.513 5.74999C11.198 5.72699 10.382 6.17599 9.928 6.78899C9.69706 7.10179 9.55224 7.4697 9.508 7.85599C9.5032 7.9005 9.50053 7.94522 9.5 7.98999V7.99899C9.5 7.99899 9.5 8.74999 10.25 8.74999C10.4458 8.75005 10.6339 8.67351 10.7741 8.53672Z" fill="#0E0E0E"/>
<path d="M12.9571 15.2071C12.7696 15.3946 12.5152 15.5 12.25 15.5C11.9848 15.5 11.7304 15.3946 11.5429 15.2071C11.3554 15.0196 11.25 14.7652 11.25 14.5C11.25 14.2348 11.3554 13.9804 11.5429 13.7929C11.7304 13.6053 11.9848 13.5 12.25 13.5C12.5152 13.5 12.7696 13.6053 12.9571 13.7929C13.1446 13.9804 13.25 14.2348 13.25 14.5C13.25 14.7652 13.1446 15.0196 12.9571 15.2071Z" fill="#0E0E0E"/>
</svg>
