<svg width="24" height="24" viewBox="0 0 24 24" fill="none" xmlns="http://www.w3.org/2000/svg">
<path d="M22 22.75H2C1.59 22.75 1.25 22.41 1.25 22C1.25 21.59 1.59 21.25 2 21.25H22C22.41 21.25 22.75 21.59 22.75 22C22.75 22.41 22.41 22.75 22 22.75Z" fill="#292D32"/>
<path d="M3.7002 22H2.2002L2.25019 9.96996C2.25019 9.11996 2.6402 8.32998 3.3102 7.80998L10.3102 2.35997C11.3002 1.58997 12.6902 1.58997 13.6902 2.35997L20.6902 7.79997C21.3502 8.31997 21.7502 9.12996 21.7502 9.96996V22H20.2502V9.97997C20.2502 9.59997 20.0702 9.22998 19.7702 8.98998L12.7702 3.54997C12.3202 3.19997 11.6902 3.19997 11.2302 3.54997L4.23019 8.99999C3.93019 9.22999 3.75019 9.59997 3.75019 9.97997L3.7002 22Z" fill="#292D32"/>
<path d="M19.0001 7.75C18.5901 7.75 18.2501 7.42001 18.2501 7.01001L18.2301 4.75H14.5801C14.1701 4.75 13.8301 4.41 13.8301 4C13.8301 3.59 14.1701 3.25 14.5801 3.25H18.9801C19.3901 3.25 19.7301 3.57999 19.7301 3.98999L19.7601 6.98999C19.7501 7.40999 19.4201 7.75 19.0001 7.75Z" fill="#292D32"/>
<path d="M15 22.75H9C8.59 22.75 8.25 22.41 8.25 22V15.5C8.25 14.26 9.26 13.25 10.5 13.25H13.5C14.74 13.25 15.75 14.26 15.75 15.5V22C15.75 22.41 15.41 22.75 15 22.75ZM9.75 21.25H14.25V15.5C14.25 15.09 13.91 14.75 13.5 14.75H10.5C10.09 14.75 9.75 15.09 9.75 15.5V21.25Z" fill="#292D32"/>
</svg>
