<svg width="21" height="20" viewBox="0 0 21 20" fill="none" xmlns="http://www.w3.org/2000/svg">
<path d="M13.417 18.9582H7.58366C4.49199 18.9582 2.79199 17.2582 2.79199 14.1665V5.83317C2.79199 2.7415 4.49199 1.0415 7.58366 1.0415H13.417C16.4587 1.0415 18.2087 2.7915 18.2087 5.83317V6.6665C18.2087 7.4665 17.5503 8.12484 16.7503 8.12484C16.6337 8.12484 16.542 8.2165 16.542 8.33317V10.1415C16.542 10.4165 16.6503 10.6832 16.8503 10.8748L17.542 11.5665C17.9753 11.9998 18.217 12.5748 18.217 13.1832V14.1665C18.2087 17.2082 16.4587 18.9582 13.417 18.9582ZM7.58366 2.2915C5.20033 2.2915 4.04199 3.44984 4.04199 5.83317V14.1665C4.04199 16.5498 5.20033 17.7082 7.58366 17.7082H13.417C15.767 17.7082 16.9587 16.5165 16.9587 14.1665V13.1915C16.9587 12.9165 16.8503 12.6498 16.6503 12.4582L15.9587 11.7665C15.5253 11.3332 15.2837 10.7582 15.2837 10.1498V8.33317C15.2837 7.53317 15.942 6.87484 16.742 6.87484C16.8587 6.87484 16.9503 6.78317 16.9503 6.6665V5.83317C16.9503 3.48317 15.7587 2.2915 13.4087 2.2915H7.58366Z" fill="#36C9A7"/>
<path d="M13.8421 18.9332C13.5004 18.9332 13.2171 18.6582 13.2171 18.3165L13.1921 15.8249C13.1921 15.2499 12.7171 14.7915 12.1504 14.7915H8.81706C8.54206 14.7915 8.27539 14.8999 8.07539 15.0999C7.88372 15.2915 7.77539 15.5582 7.77539 15.8332L7.78372 18.3082C7.78372 18.6499 7.50872 18.9332 7.15872 18.9332C6.81706 18.9332 6.53372 18.6582 6.53372 18.3082L6.52539 15.8332C6.52539 15.2165 6.75872 14.6415 7.19206 14.2082C7.62539 13.7749 8.20039 13.5332 8.81706 13.5332H12.1587C13.4171 13.5332 14.4421 14.5582 14.4504 15.8082L14.4754 18.2915C14.4754 18.6499 14.1921 18.9332 13.8421 18.9332C13.8504 18.9332 13.8421 18.9332 13.8421 18.9332Z" fill="#36C9A7"/>
<path d="M7.95038 4.75016H7.94205C7.59205 4.74183 7.31705 4.4585 7.32538 4.1085L7.36705 1.70016C7.37538 1.3585 7.65038 1.0835 7.99205 1.0835H8.00038C8.34205 1.09183 8.61705 1.37516 8.61705 1.71683L8.57538 4.1335C8.56705 4.47516 8.29205 4.75016 7.95038 4.75016Z" fill="#36C9A7"/>
<path d="M10.4502 4.75013H10.4419C10.1002 4.7418 9.8252 4.45846 9.8252 4.1168L9.86686 1.70846C9.8752 1.3668 10.1502 1.0918 10.4919 1.0918H10.5002C10.8419 1.10013 11.1169 1.38346 11.1169 1.72513L11.0752 4.13346C11.0669 4.47513 10.7919 4.75013 10.4502 4.75013Z" fill="#36C9A7"/>
<path d="M12.9502 4.72523H12.9419C12.6002 4.7169 12.3252 4.43356 12.3252 4.09189L12.3669 1.68356C12.3752 1.34189 12.6502 1.06689 12.9919 1.06689H13.0002C13.3419 1.07523 13.6169 1.35856 13.6169 1.70023L13.5752 4.10856C13.5669 4.45023 13.2919 4.72523 12.9502 4.72523Z" fill="#36C9A7"/>
</svg>
